<svg xmlns="http://www.w3.org/2000/svg" xmlns:xlink="http://www.w3.org/1999/xlink" width="50" zoomAndPan="magnify" viewBox="0 0 37.5 37.499999" height="50" preserveAspectRatio="xMidYMid meet" version="1.2"><defs><clipPath id="5bfc1cd0c7"><path d="M 0 0 L 37.007812 0 L 37.007812 37.007812 L 0 37.007812 Z M 0 0 "/></clipPath><clipPath id="81ad23ef44"><path d="M 0 2.160156 L 37 2.160156 L 37 34.722656 L 0 34.722656 Z M 0 2.160156 "/></clipPath></defs><g id="a8723d6e4e"><g clip-rule="nonzero" clip-path="url(#5bfc1cd0c7)"><path style=" stroke:none;fill-rule:nonzero;fill:#ffffff;fill-opacity:1;" d="M 0 0 L 37.007812 0 L 37.007812 37.007812 L 0 37.007812 Z M 0 0 "/><path style=" stroke:none;fill-rule:nonzero;fill:#ffffff;fill-opacity:1;" d="M 0 0 L 37.007812 0 L 37.007812 37.007812 L 0 37.007812 Z M 0 0 "/></g><g clip-rule="nonzero" clip-path="url(#81ad23ef44)"><path style=" stroke:none;fill-rule:nonzero;fill:#1185fe;fill-opacity:1;" d="M 8.375 4.863281 C 12.472656 7.929688 16.882812 14.152344 18.503906 17.488281 C 20.121094 14.152344 24.53125 7.929688 28.632812 4.863281 C 31.59375 2.652344 36.386719 0.9375 36.386719 6.386719 C 36.386719 7.476562 35.757812 15.53125 35.390625 16.835938 C 34.117188 21.382812 29.464844 22.542969 25.324219 21.839844 C 32.558594 23.066406 34.398438 27.132812 30.425781 31.195312 C 22.878906 38.910156 19.578125 29.257812 18.730469 26.785156 C 18.578125 26.332031 18.503906 26.121094 18.503906 26.300781 C 18.503906 26.121094 18.429688 26.332031 18.273438 26.785156 C 17.429688 29.257812 14.128906 38.910156 6.582031 31.195312 C 2.609375 27.132812 4.449219 23.066406 11.679688 21.839844 C 7.542969 22.542969 2.890625 21.382812 1.613281 16.835938 C 1.246094 15.53125 0.621094 7.476562 0.621094 6.386719 C 0.621094 0.9375 5.414062 2.652344 8.375 4.863281 Z M 8.375 4.863281 "/></g></g></svg>