<svg xmlns="http://www.w3.org/2000/svg" xmlns:xlink="http://www.w3.org/1999/xlink" width="40" zoomAndPan="magnify" viewBox="0 0 30 30.000001" height="40" preserveAspectRatio="xMidYMid meet" version="1.2"><defs><clipPath id="b2e59ef020"><path d="M 0.484375 2 L 29.515625 2 L 29.515625 27 L 0.484375 27 Z M 0.484375 2 "/></clipPath></defs><g id="c21437bc05"><g clip-rule="nonzero" clip-path="url(#b2e59ef020)"><path style=" stroke:none;fill-rule:nonzero;fill:#1185fe;fill-opacity:1;" d="M 7.050781 3.804688 C 10.269531 6.195312 13.730469 11.046875 15 13.652344 C 16.269531 11.046875 19.730469 6.195312 22.949219 3.804688 C 25.269531 2.078125 29.03125 0.742188 29.03125 4.992188 C 29.03125 5.839844 28.539062 12.125 28.25 13.144531 C 27.25 16.691406 23.597656 17.59375 20.351562 17.046875 C 26.027344 18.003906 27.472656 21.171875 24.355469 24.34375 C 18.433594 30.363281 15.84375 22.832031 15.179688 20.902344 C 15.058594 20.550781 15 20.382812 15 20.523438 C 15 20.382812 14.941406 20.550781 14.820312 20.902344 C 14.15625 22.832031 11.566406 30.363281 5.644531 24.34375 C 2.527344 21.171875 3.972656 18.003906 9.648438 17.046875 C 6.402344 17.59375 2.75 16.691406 1.75 13.144531 C 1.460938 12.125 0.96875 5.839844 0.96875 4.992188 C 0.96875 0.742188 4.730469 2.078125 7.050781 3.804688 Z M 7.050781 3.804688 "/></g></g></svg>