<svg xmlns="http://www.w3.org/2000/svg" xmlns:xlink="http://www.w3.org/1999/xlink" width="500" zoomAndPan="magnify" viewBox="0 0 375 374.999991" height="500" preserveAspectRatio="xMidYMid meet" version="1.0"><defs><filter x="0%" y="0%" width="100%" height="100%" id="id1"><feColorMatrix values="0 0 0 0 1 0 0 0 0 1 0 0 0 0 1 0 0 0 1 0" color-interpolation-filters="sRGB"/></filter><g/><clipPath id="id2"><path d="M 0 0 L 375 0 L 375 374.574219 L 0 374.574219 Z M 0 0 " clip-rule="nonzero"/></clipPath><mask id="id3"><g filter="url(#id1)"><rect x="-37.5" width="450" fill="#000000" y="-37.499999" height="449.999989" fill-opacity="0.6471"/></g></mask><clipPath id="id4"><path d="M 0 0.160156 L 73.921875 0.160156 L 73.921875 196.71875 L 0 196.71875 Z M 0 0.160156 " clip-rule="nonzero"/></clipPath><clipPath id="id5"><rect x="0" width="74" y="0" height="197"/></clipPath><mask id="id6"><g filter="url(#id1)"><rect x="-37.5" width="450" fill="#000000" y="-37.499999" height="449.999989" fill-opacity="0.898"/></g></mask><clipPath id="id7"><path d="M 0 0.320312 L 105 0.320312 L 105 23 L 0 23 Z M 0 0.320312 " clip-rule="nonzero"/></clipPath><clipPath id="id8"><rect x="0" width="106" y="0" height="23"/></clipPath><mask id="id9"><g filter="url(#id1)"><rect x="-37.5" width="450" fill="#000000" y="-37.499999" height="449.999989" fill-opacity="0.749"/></g></mask><clipPath id="id10"><path d="M 0 0.238281 L 90.960938 0.238281 L 90.960938 159 L 0 159 Z M 0 0.238281 " clip-rule="nonzero"/></clipPath><clipPath id="id11"><rect x="0" width="91" y="0" height="159"/></clipPath><mask id="id12"><g filter="url(#id1)"><rect x="-37.5" width="450" fill="#000000" y="-37.499999" height="449.999989" fill-opacity="0.498"/></g></mask><clipPath id="id13"><path d="M 1 0.480469 L 192.71875 0.480469 L 192.71875 209 L 1 209 Z M 1 0.480469 " clip-rule="nonzero"/></clipPath><clipPath id="id14"><rect x="0" width="193" y="0" height="210"/></clipPath><mask id="id15"><g filter="url(#id1)"><rect x="-37.5" width="450" fill="#000000" y="-37.499999" height="449.999989" fill-opacity="0.2"/></g></mask><clipPath id="id16"><path d="M 1 0.480469 L 192.71875 0.480469 L 192.71875 209 L 1 209 Z M 1 0.480469 " clip-rule="nonzero"/></clipPath><clipPath id="id17"><rect x="0" width="193" y="0" height="210"/></clipPath><mask id="id18"><g filter="url(#id1)"><rect x="-37.5" width="450" fill="#000000" y="-37.499999" height="449.999989" fill-opacity="0.8"/></g></mask><clipPath id="id19"><path d="M 0 0 L 60 0 L 60 109.679688 L 0 109.679688 Z M 0 0 " clip-rule="nonzero"/></clipPath><clipPath id="id20"><rect x="0" width="61" y="0" height="110"/></clipPath><mask id="id21"><g filter="url(#id1)"><rect x="-37.5" width="450" fill="#000000" y="-37.499999" height="449.999989" fill-opacity="0.749"/></g></mask><clipPath id="id22"><path d="M 0.519531 1 L 94.601562 1 L 94.601562 108.960938 L 0.519531 108.960938 Z M 0.519531 1 " clip-rule="nonzero"/></clipPath><clipPath id="id23"><rect x="0" width="95" y="0" height="109"/></clipPath><mask id="id24"><g filter="url(#id1)"><rect x="-37.5" width="450" fill="#000000" y="-37.499999" height="449.999989" fill-opacity="0.6"/></g></mask><clipPath id="id25"><path d="M 1 0 L 223 0 L 223 187.679688 L 1 187.679688 Z M 1 0 " clip-rule="nonzero"/></clipPath><clipPath id="id26"><rect x="0" width="223" y="0" height="188"/></clipPath><mask id="id27"><g filter="url(#id1)"><rect x="-37.5" width="450" fill="#000000" y="-37.499999" height="449.999989" fill-opacity="0.6"/></g></mask><clipPath id="id28"><path d="M 1 0 L 112 0 L 112 229.921875 L 1 229.921875 Z M 1 0 " clip-rule="nonzero"/></clipPath><clipPath id="id29"><rect x="0" width="112" y="0" height="230"/></clipPath><mask id="id30"><g filter="url(#id1)"><rect x="-37.5" width="450" fill="#000000" y="-37.499999" height="449.999989" fill-opacity="0.2"/></g></mask><clipPath id="id31"><path d="M 1 0 L 112 0 L 112 229.921875 L 1 229.921875 Z M 1 0 " clip-rule="nonzero"/></clipPath><clipPath id="id32"><rect x="0" width="112" y="0" height="230"/></clipPath><mask id="id33"><g filter="url(#id1)"><rect x="-37.5" width="450" fill="#000000" y="-37.499999" height="449.999989" fill-opacity="0.698"/></g></mask><clipPath id="id34"><path d="M 0.320312 0 L 341 0 L 341 145 L 0.320312 145 Z M 0.320312 0 " clip-rule="nonzero"/></clipPath><clipPath id="id35"><rect x="0" width="341" y="0" height="146"/></clipPath><mask id="id36"><g filter="url(#id1)"><rect x="-37.5" width="450" fill="#000000" y="-37.499999" height="449.999989" fill-opacity="0.698"/></g></mask><clipPath id="id37"><path d="M 0.199219 1 L 182 1 L 182 136.558594 L 0.199219 136.558594 Z M 0.199219 1 " clip-rule="nonzero"/></clipPath><clipPath id="id38"><rect x="0" width="182" y="0" height="137"/></clipPath><mask id="id39"><g filter="url(#id1)"><rect x="-37.5" width="450" fill="#000000" y="-37.499999" height="449.999989" fill-opacity="0.698"/></g></mask><clipPath id="id40"><path d="M 0.199219 1 L 182 1 L 182 136.558594 L 0.199219 136.558594 Z M 0.199219 1 " clip-rule="nonzero"/></clipPath><clipPath id="id41"><rect x="0" width="182" y="0" height="137"/></clipPath><mask id="id42"><g filter="url(#id1)"><rect x="-37.5" width="450" fill="#000000" y="-37.499999" height="449.999989" fill-opacity="0.698"/></g></mask><clipPath id="id43"><path d="M 0.238281 1 L 104 1 L 104 54 L 0.238281 54 Z M 0.238281 1 " clip-rule="nonzero"/></clipPath><clipPath id="id44"><rect x="0" width="105" y="0" height="54"/></clipPath><mask id="id45"><g filter="url(#id1)"><rect x="-37.5" width="450" fill="#000000" y="-37.499999" height="449.999989" fill-opacity="0.8"/></g></mask><clipPath id="id46"><path d="M 1 1 L 258 1 L 258 108 L 1 108 Z M 1 1 " clip-rule="nonzero"/></clipPath><clipPath id="id47"><rect x="0" width="258" y="0" height="108"/></clipPath></defs><rect x="-37.5" width="450" fill="#ffffff" y="-37.499999" height="449.999989" fill-opacity="1"/><rect x="-37.5" width="450" fill="#ffffff" y="-37.499999" height="449.999989" fill-opacity="1"/><rect x="-37.5" width="450" fill="#ffffff" y="-37.499999" height="449.999989" fill-opacity="1"/><rect x="-37.5" width="450" fill="#ffffff" y="-37.499999" height="449.999989" fill-opacity="1"/><g clip-path="url(#id2)"><path fill="#7621cb" d="M 0 0 L 0 374.574219 L 375 374.574219 L 375 0 Z M 0 0 " fill-opacity="1" fill-rule="nonzero"/></g><g mask="url(#id3)"><g transform="matrix(1, 0, 0, 1, 0, 86)"><g clip-path="url(#id5)"><g clip-path="url(#id4)"><path fill="#01faff" d="M 59.765625 23.246094 L 0.0078125 0.546875 L 0.0078125 196.355469 L 73.261719 130.472656 Z M 59.765625 23.246094 " fill-opacity="1" fill-rule="nonzero"/></g></g></g></g><g mask="url(#id6)"><g transform="matrix(1, 0, 0, 1, 0, 352)"><g clip-path="url(#id8)"><g clip-path="url(#id7)"><path fill="#ee3ec9" d="M 0.0078125 27.519531 L 0.0078125 113.707031 L 104.550781 113.707031 L 90.378906 0.714844 Z M 0.0078125 27.519531 " fill-opacity="1" fill-rule="nonzero"/></g></g></g></g><g mask="url(#id9)"><g transform="matrix(1, 0, 0, 1, 0, 216)"><g clip-path="url(#id11)"><g clip-path="url(#id10)"><path fill="#ee3ec9" d="M 73.261719 0.472656 L 0.0078125 66.355469 L 0.0078125 163.519531 L 90.378906 136.714844 Z M 73.261719 0.472656 " fill-opacity="1" fill-rule="nonzero"/></g></g></g></g><g mask="url(#id12)"><g transform="matrix(1, 0, 0, 1, 72, 144)"><g clip-path="url(#id14)"><g clip-path="url(#id13)"><path fill="#ee3ec9" d="M 18.378906 208.714844 L 121.390625 178.164062 L 192.25 43.148438 L 81.019531 0.761719 L 1.261719 72.472656 Z M 18.378906 208.714844 " fill-opacity="1" fill-rule="nonzero"/></g></g></g></g><g mask="url(#id15)"><g transform="matrix(1, 0, 0, 1, 72, 144)"><g clip-path="url(#id17)"><g clip-path="url(#id16)"><path fill="#01faff" d="M 18.378906 208.714844 L 121.390625 178.164062 L 192.25 43.148438 L 81.019531 0.761719 L 1.261719 72.472656 Z M 18.378906 208.714844 " fill-opacity="1" fill-rule="nonzero"/></g></g></g></g><g mask="url(#id18)"><g transform="matrix(1, 0, 0, 1, 0, 0)"><g clip-path="url(#id20)"><g clip-path="url(#id19)"><path fill="#01faff" d="M 34.613281 -90.792969 L 0.0078125 -90.792969 L 0.0078125 86.546875 L 59.765625 109.246094 Z M 34.613281 -90.792969 " fill-opacity="1" fill-rule="nonzero"/></g></g></g></g><g mask="url(#id21)"><g transform="matrix(1, 0, 0, 1, 59, 108)"><g clip-path="url(#id23)"><g clip-path="url(#id22)"><path fill="#01faff" d="M 94.019531 36.761719 L 0.765625 1.246094 L 14.261719 108.472656 Z M 94.019531 36.761719 " fill-opacity="1" fill-rule="nonzero"/></g></g></g></g><g mask="url(#id24)"><g transform="matrix(1, 0, 0, 1, 152, 0)"><g clip-path="url(#id26)"><g clip-path="url(#id25)"><path fill="#01faff" d="M 112.25 187.148438 L 222.992188 -23.867188 L 222.992188 -54.785156 L 1.019531 144.761719 Z M 112.25 187.148438 " fill-opacity="1" fill-rule="nonzero"/></g></g></g></g><g mask="url(#id27)"><g transform="matrix(1, 0, 0, 1, 263, 0)"><g clip-path="url(#id29)"><g clip-path="url(#id28)"><path fill="#01faff" d="M 111.992188 229.355469 L 111.992188 -23.867188 L 1.25 187.148438 Z M 111.992188 229.355469 " fill-opacity="1" fill-rule="nonzero"/></g></g></g></g><g mask="url(#id30)"><g transform="matrix(1, 0, 0, 1, 263, 0)"><g clip-path="url(#id32)"><g clip-path="url(#id31)"><path fill="#ee3ec9" d="M 111.992188 229.355469 L 111.992188 -23.867188 L 1.25 187.148438 Z M 111.992188 229.355469 " fill-opacity="1" fill-rule="nonzero"/></g></g></g></g><g mask="url(#id33)"><g transform="matrix(1, 0, 0, 1, 34, 0)"><g clip-path="url(#id35)"><g clip-path="url(#id34)"><path fill="#01faff" d="M 0.613281 -90.792969 L 25.765625 109.246094 L 119.019531 144.761719 L 340.992188 -54.785156 L 340.992188 -90.792969 Z M 0.613281 -90.792969 " fill-opacity="1" fill-rule="nonzero"/></g></g></g></g><g mask="url(#id36)"><g transform="matrix(1, 0, 0, 1, 193, 186)"><g clip-path="url(#id38)"><g clip-path="url(#id37)"><path fill="#01faff" d="M 0.390625 136.164062 L 181.992188 82.367188 L 181.992188 43.355469 L 71.25 1.148438 Z M 0.390625 136.164062 " fill-opacity="1" fill-rule="nonzero"/></g></g></g></g><g mask="url(#id39)"><g transform="matrix(1, 0, 0, 1, 193, 186)"><g clip-path="url(#id41)"><g clip-path="url(#id40)"><path fill="#ee3ec9" d="M 0.390625 136.164062 L 181.992188 82.367188 L 181.992188 43.355469 L 71.25 1.148438 Z M 0.390625 136.164062 " fill-opacity="1" fill-rule="nonzero"/></g></g></g></g><g mask="url(#id42)"><g transform="matrix(1, 0, 0, 1, 90, 321)"><g clip-path="url(#id44)"><g clip-path="url(#id43)"><path fill="#ee3ec9" d="M 0.378906 31.714844 L 14.550781 144.707031 L 28.109375 144.707031 L 103.390625 1.164062 Z M 0.378906 31.714844 " fill-opacity="1" fill-rule="nonzero"/></g></g></g></g><g mask="url(#id45)"><g transform="matrix(1, 0, 0, 1, 117, 267)"><g clip-path="url(#id47)"><g clip-path="url(#id46)"><path fill="#ee3ec9" d="M 1.109375 198.707031 L 257.992188 198.707031 L 257.992188 1.367188 L 76.390625 55.164062 Z M 1.109375 198.707031 " fill-opacity="1" fill-rule="nonzero"/></g></g></g></g><g fill="#ffffff" fill-opacity="1"><g transform="translate(53.962071, 172.540283)"><g><path d="M 4.71875 0 L 4.71875 -2.0625 C 7.75 -2.0625 9.816406 -2.878906 10.921875 -4.515625 C 12.023438 -6.148438 12.578125 -8.992188 12.578125 -13.046875 L 12.578125 -56.21875 C 12.578125 -60.382812 12.035156 -63.265625 10.953125 -64.859375 C 9.867188 -66.460938 7.789062 -67.265625 4.71875 -67.265625 L 4.71875 -69.265625 L 29.53125 -69.265625 L 29.53125 -67.265625 C 26.613281 -67.265625 24.59375 -66.4375 23.46875 -64.78125 C 22.351562 -63.125 21.796875 -60.269531 21.796875 -56.21875 L 21.796875 -35.3125 L 44.40625 -57.578125 C 46.8125 -59.972656 48.015625 -61.898438 48.015625 -63.359375 C 48.015625 -65.367188 46.554688 -66.671875 43.640625 -67.265625 L 43.640625 -69.265625 L 69.796875 -69.265625 L 69.796875 -67.265625 L 66.375 -67.265625 C 64.289062 -67.265625 61.898438 -66.5625 59.203125 -65.15625 C 56.503906 -63.757812 54.03125 -61.921875 51.78125 -59.640625 L 30.234375 -38.328125 L 58.875 -9.328125 C 61.707031 -6.410156 63.890625 -4.519531 65.421875 -3.65625 C 66.960938 -2.789062 69.109375 -2.257812 71.859375 -2.0625 L 71.859375 0 L 55.390625 0 L 21.796875 -33.953125 L 21.796875 -13.046875 C 21.796875 -8.992188 22.332031 -6.148438 23.40625 -4.515625 C 24.488281 -2.878906 26.53125 -2.0625 29.53125 -2.0625 L 29.53125 0 Z M 4.71875 0 "/></g></g></g><g fill="#ffffff" fill-opacity="1"><g transform="translate(124.606926, 172.540283)"><g><path d="M 59 -14.53125 L 59 -56.21875 C 59 -60.269531 58.457031 -63.09375 57.375 -64.6875 C 56.289062 -66.28125 54.367188 -67.140625 51.609375 -67.265625 L 51.609375 -69.265625 L 76.0625 -69.265625 L 76.0625 -67.265625 C 73.101562 -67.265625 71.050781 -66.457031 69.90625 -64.84375 C 68.769531 -63.226562 68.203125 -60.351562 68.203125 -56.21875 L 68.203125 -13.046875 C 68.203125 -8.992188 68.765625 -6.148438 69.890625 -4.515625 C 71.015625 -2.878906 73.070312 -2.0625 76.0625 -2.0625 L 76.0625 0 L 59 0 L 59 -9.6875 C 52.5 -2.082031 44.800781 1.71875 35.90625 1.71875 C 28.582031 1.71875 22.820312 -0.460938 18.625 -4.828125 C 14.4375 -9.203125 12.34375 -14.972656 12.34375 -22.140625 L 12.34375 -56.21875 C 12.34375 -60.351562 11.800781 -63.226562 10.71875 -64.84375 C 9.632812 -66.457031 7.554688 -67.265625 4.484375 -67.265625 L 4.484375 -69.265625 L 29.53125 -69.265625 L 29.53125 -67.265625 C 26.414062 -67.265625 24.304688 -66.472656 23.203125 -64.890625 C 22.097656 -63.316406 21.546875 -60.460938 21.546875 -56.328125 L 21.546875 -21.265625 C 21.546875 -15.585938 23.101562 -11.125 26.21875 -7.875 C 29.332031 -4.632812 33.660156 -3.015625 39.203125 -3.015625 C 47.429688 -3.015625 54.03125 -6.851562 59 -14.53125 Z M 59 -14.53125 "/></g></g></g><g fill="#ffffff" fill-opacity="1"><g transform="translate(201.51032, 172.540283)"><g><path d="M 36.140625 0 L 4.25 0 L 4.25 -2.0625 C 7.207031 -2.0625 9.253906 -2.859375 10.390625 -4.453125 C 11.535156 -6.046875 12.109375 -8.910156 12.109375 -13.046875 L 12.109375 -56.21875 C 12.109375 -60.425781 11.566406 -63.316406 10.484375 -64.890625 C 9.398438 -66.472656 7.320312 -67.265625 4.25 -67.265625 L 4.25 -69.265625 L 30.359375 -69.265625 C 37.835938 -69.265625 43.722656 -67.71875 48.015625 -64.625 C 52.304688 -61.539062 54.453125 -57.457031 54.453125 -52.375 C 54.453125 -44.9375 49.804688 -39.703125 40.515625 -36.671875 L 40.515625 -36.375 C 45.785156 -35.3125 50.082031 -32.976562 53.40625 -29.375 C 56.738281 -25.769531 58.40625 -21.628906 58.40625 -16.953125 C 58.40625 -11.828125 56.363281 -7.71875 52.28125 -4.625 C 48.207031 -1.539062 42.828125 0 36.140625 0 Z M 21.265625 -66.609375 L 21.265625 -37.265625 L 28.40625 -37.265625 C 33.40625 -37.265625 37.378906 -38.570312 40.328125 -41.1875 C 43.285156 -43.800781 44.765625 -47.332031 44.765625 -51.78125 C 44.765625 -56.46875 43.316406 -60.109375 40.421875 -62.703125 C 37.523438 -65.304688 33.441406 -66.609375 28.171875 -66.609375 Z M 27.8125 -34.609375 L 21.265625 -34.609375 L 21.265625 -14.296875 C 21.265625 -9.804688 21.753906 -6.742188 22.734375 -5.109375 C 23.722656 -3.472656 25.613281 -2.65625 28.40625 -2.65625 L 34.125 -2.65625 C 38.144531 -2.65625 41.421875 -4.003906 43.953125 -6.703125 C 46.492188 -9.398438 47.765625 -13.007812 47.765625 -17.53125 C 47.765625 -22.695312 45.941406 -26.832031 42.296875 -29.9375 C 38.660156 -33.050781 33.832031 -34.609375 27.8125 -34.609375 Z M 27.8125 -34.609375 "/></g></g></g><g fill="#ffffff" fill-opacity="1"><g transform="translate(259.401925, 172.540283)"><g><path d="M 48.015625 -43.046875 L 50.078125 -43.046875 L 50.078125 -26.21875 L 48.015625 -26.21875 C 47.265625 -29.164062 46.359375 -31.015625 45.296875 -31.765625 C 44.234375 -32.515625 41.910156 -32.890625 38.328125 -32.890625 L 21.140625 -32.890625 L 21.140625 -8.09375 C 21.140625 -6.351562 21.519531 -5.128906 22.28125 -4.421875 C 23.050781 -3.710938 24.363281 -3.359375 26.21875 -3.359375 L 38.328125 -3.359375 C 42.648438 -3.359375 45.640625 -3.59375 47.296875 -4.0625 C 48.953125 -4.539062 50.347656 -5.421875 51.484375 -6.703125 C 52.628906 -7.984375 53.851562 -10.0625 55.15625 -12.9375 L 57.21875 -12.9375 L 54.03125 0 L 4.140625 0 L 4.140625 -2.0625 C 7.242188 -2.0625 9.328125 -2.859375 10.390625 -4.453125 C 11.453125 -6.046875 11.984375 -8.875 11.984375 -12.9375 L 11.984375 -56.21875 C 11.984375 -60.425781 11.429688 -63.316406 10.328125 -64.890625 C 9.234375 -66.472656 7.171875 -67.265625 4.140625 -67.265625 L 4.140625 -69.265625 L 54.03125 -69.265625 L 54.03125 -57.6875 L 52.734375 -57.6875 C 52.023438 -61 51.007812 -63.195312 49.6875 -64.28125 C 48.375 -65.363281 45.507812 -65.90625 41.09375 -65.90625 L 21.140625 -65.90625 L 21.140625 -36.25 L 40.515625 -36.25 C 43.148438 -36.25 44.945312 -36.722656 45.90625 -37.671875 C 46.875 -38.617188 47.578125 -40.410156 48.015625 -43.046875 Z M 48.015625 -43.046875 "/></g></g></g><g fill="#ffffff" fill-opacity="1"><g transform="translate(33.068162, 259.980052)"><g><path d="M 41.09375 -70.265625 L 43.046875 -70.265625 L 43.046875 -54.03125 L 40.984375 -54.03125 C 40.503906 -58.519531 38.878906 -62.023438 36.109375 -64.546875 C 33.335938 -67.066406 29.84375 -68.328125 25.625 -68.328125 C 21.882812 -68.328125 18.875 -67.378906 16.59375 -65.484375 C 14.3125 -63.597656 13.171875 -61.078125 13.171875 -57.921875 C 13.171875 -55.015625 14.113281 -52.359375 16 -49.953125 C 17.894531 -47.554688 21.988281 -44.46875 28.28125 -40.6875 C 35.601562 -36.3125 40.523438 -32.488281 43.046875 -29.21875 C 45.566406 -25.957031 46.828125 -22.222656 46.828125 -18.015625 C 46.828125 -12.578125 44.894531 -7.925781 41.03125 -4.0625 C 37.175781 -0.207031 32.535156 1.71875 27.109375 1.71875 C 23.953125 1.71875 19.9375 0.847656 15.0625 -0.890625 C 13.050781 -1.597656 11.769531 -1.953125 11.21875 -1.953125 C 10.070312 -1.953125 9.1875 -1.066406 8.5625 0.703125 L 6.5625 0.703125 L 6.5625 -18.015625 L 8.5625 -18.015625 C 8.601562 -12.859375 10.285156 -8.722656 13.609375 -5.609375 C 16.929688 -2.492188 20.820312 -0.9375 25.28125 -0.9375 C 29.488281 -0.9375 32.859375 -2.054688 35.390625 -4.296875 C 37.929688 -6.546875 39.203125 -9.539062 39.203125 -13.28125 C 39.203125 -16.082031 38.160156 -18.757812 36.078125 -21.3125 C 33.992188 -23.875 29.644531 -27.179688 23.03125 -31.234375 C 17.632812 -34.578125 14.03125 -37.210938 12.21875 -39.140625 C 10.40625 -41.078125 9.066406 -43.195312 8.203125 -45.5 C 7.335938 -47.800781 6.90625 -50.332031 6.90625 -53.09375 C 6.90625 -58.40625 8.644531 -62.710938 12.125 -66.015625 C 15.613281 -69.328125 20.15625 -70.984375 25.75 -70.984375 C 28.820312 -70.984375 32.164062 -70.375 35.78125 -69.15625 C 37.476562 -68.601562 38.660156 -68.328125 39.328125 -68.328125 C 39.878906 -68.328125 40.253906 -68.441406 40.453125 -68.671875 C 40.648438 -68.910156 40.863281 -69.441406 41.09375 -70.265625 Z M 41.09375 -70.265625 "/></g></g></g><g fill="#ffffff" fill-opacity="1"><g transform="translate(79.741629, 259.980052)"><g><path d="M 4.71875 0 L 4.71875 -2.0625 C 7.75 -2.0625 9.816406 -2.878906 10.921875 -4.515625 C 12.023438 -6.148438 12.578125 -8.992188 12.578125 -13.046875 L 12.578125 -56.21875 C 12.578125 -60.382812 12.035156 -63.265625 10.953125 -64.859375 C 9.867188 -66.460938 7.789062 -67.265625 4.71875 -67.265625 L 4.71875 -69.265625 L 29.53125 -69.265625 L 29.53125 -67.265625 C 26.613281 -67.265625 24.59375 -66.4375 23.46875 -64.78125 C 22.351562 -63.125 21.796875 -60.269531 21.796875 -56.21875 L 21.796875 -35.3125 L 44.40625 -57.578125 C 46.8125 -59.972656 48.015625 -61.898438 48.015625 -63.359375 C 48.015625 -65.367188 46.554688 -66.671875 43.640625 -67.265625 L 43.640625 -69.265625 L 69.796875 -69.265625 L 69.796875 -67.265625 L 66.375 -67.265625 C 64.289062 -67.265625 61.898438 -66.5625 59.203125 -65.15625 C 56.503906 -63.757812 54.03125 -61.921875 51.78125 -59.640625 L 30.234375 -38.328125 L 58.875 -9.328125 C 61.707031 -6.410156 63.890625 -4.519531 65.421875 -3.65625 C 66.960938 -2.789062 69.109375 -2.257812 71.859375 -2.0625 L 71.859375 0 L 55.390625 0 L 21.796875 -33.953125 L 21.796875 -13.046875 C 21.796875 -8.992188 22.332031 -6.148438 23.40625 -4.515625 C 24.488281 -2.878906 26.53125 -2.0625 29.53125 -2.0625 L 29.53125 0 Z M 4.71875 0 "/></g></g></g><g fill="#ffffff" fill-opacity="1"><g transform="translate(150.386484, 259.980052)"><g><path d="M 28.171875 -69.265625 L 28.171875 -67.265625 C 25.210938 -67.265625 23.160156 -66.457031 22.015625 -64.84375 C 20.878906 -63.226562 20.3125 -60.351562 20.3125 -56.21875 L 20.3125 -13.046875 C 20.3125 -8.910156 20.878906 -6.046875 22.015625 -4.453125 C 23.160156 -2.859375 25.210938 -2.0625 28.171875 -2.0625 L 28.171875 0 L 3.25 0 L 3.25 -2.0625 C 6.28125 -2.0625 8.347656 -2.847656 9.453125 -4.421875 C 10.554688 -6.003906 11.109375 -8.878906 11.109375 -13.046875 L 11.109375 -56.21875 C 11.109375 -60.46875 10.566406 -63.367188 9.484375 -64.921875 C 8.398438 -66.484375 6.320312 -67.265625 3.25 -67.265625 L 3.25 -69.265625 Z M 28.171875 -69.265625 "/></g></g></g><g fill="#ffffff" fill-opacity="1"><g transform="translate(178.048162, 259.980052)"><g><path d="M 57.578125 -15.125 L 59.640625 -15.125 L 55.390625 0 L 5.203125 0 L 5.203125 -2.0625 C 8.035156 -2.0625 10.050781 -2.945312 11.25 -4.71875 C 12.445312 -6.488281 13.046875 -9.460938 13.046875 -13.640625 L 13.046875 -57.21875 C 13.046875 -60.957031 12.484375 -63.566406 11.359375 -65.046875 C 10.242188 -66.523438 8.191406 -67.265625 5.203125 -67.265625 L 5.203125 -69.265625 L 30 -69.265625 L 30 -67.265625 C 27.238281 -67.265625 25.257812 -66.414062 24.0625 -64.71875 C 22.863281 -63.03125 22.265625 -60.234375 22.265625 -56.328125 L 22.265625 -10.03125 C 22.265625 -7.476562 22.804688 -5.726562 23.890625 -4.78125 C 24.972656 -3.832031 27.046875 -3.359375 30.109375 -3.359375 L 43.875 -3.359375 C 48.125 -3.359375 51.09375 -4.097656 52.78125 -5.578125 C 54.476562 -7.054688 56.078125 -10.238281 57.578125 -15.125 Z M 57.578125 -15.125 "/></g></g></g><g fill="#ffffff" fill-opacity="1"><g transform="translate(234.75891, 259.980052)"><g><path d="M 57.578125 -15.125 L 59.640625 -15.125 L 55.390625 0 L 5.203125 0 L 5.203125 -2.0625 C 8.035156 -2.0625 10.050781 -2.945312 11.25 -4.71875 C 12.445312 -6.488281 13.046875 -9.460938 13.046875 -13.640625 L 13.046875 -57.21875 C 13.046875 -60.957031 12.484375 -63.566406 11.359375 -65.046875 C 10.242188 -66.523438 8.191406 -67.265625 5.203125 -67.265625 L 5.203125 -69.265625 L 30 -69.265625 L 30 -67.265625 C 27.238281 -67.265625 25.257812 -66.414062 24.0625 -64.71875 C 22.863281 -63.03125 22.265625 -60.234375 22.265625 -56.328125 L 22.265625 -10.03125 C 22.265625 -7.476562 22.804688 -5.726562 23.890625 -4.78125 C 24.972656 -3.832031 27.046875 -3.359375 30.109375 -3.359375 L 43.875 -3.359375 C 48.125 -3.359375 51.09375 -4.097656 52.78125 -5.578125 C 54.476562 -7.054688 56.078125 -10.238281 57.578125 -15.125 Z M 57.578125 -15.125 "/></g></g></g><g fill="#ffffff" fill-opacity="1"><g transform="translate(291.469645, 259.980052)"><g><path d="M 41.09375 -70.265625 L 43.046875 -70.265625 L 43.046875 -54.03125 L 40.984375 -54.03125 C 40.503906 -58.519531 38.878906 -62.023438 36.109375 -64.546875 C 33.335938 -67.066406 29.84375 -68.328125 25.625 -68.328125 C 21.882812 -68.328125 18.875 -67.378906 16.59375 -65.484375 C 14.3125 -63.597656 13.171875 -61.078125 13.171875 -57.921875 C 13.171875 -55.015625 14.113281 -52.359375 16 -49.953125 C 17.894531 -47.554688 21.988281 -44.46875 28.28125 -40.6875 C 35.601562 -36.3125 40.523438 -32.488281 43.046875 -29.21875 C 45.566406 -25.957031 46.828125 -22.222656 46.828125 -18.015625 C 46.828125 -12.578125 44.894531 -7.925781 41.03125 -4.0625 C 37.175781 -0.207031 32.535156 1.71875 27.109375 1.71875 C 23.953125 1.71875 19.9375 0.847656 15.0625 -0.890625 C 13.050781 -1.597656 11.769531 -1.953125 11.21875 -1.953125 C 10.070312 -1.953125 9.1875 -1.066406 8.5625 0.703125 L 6.5625 0.703125 L 6.5625 -18.015625 L 8.5625 -18.015625 C 8.601562 -12.859375 10.285156 -8.722656 13.609375 -5.609375 C 16.929688 -2.492188 20.820312 -0.9375 25.28125 -0.9375 C 29.488281 -0.9375 32.859375 -2.054688 35.390625 -4.296875 C 37.929688 -6.546875 39.203125 -9.539062 39.203125 -13.28125 C 39.203125 -16.082031 38.160156 -18.757812 36.078125 -21.3125 C 33.992188 -23.875 29.644531 -27.179688 23.03125 -31.234375 C 17.632812 -34.578125 14.03125 -37.210938 12.21875 -39.140625 C 10.40625 -41.078125 9.066406 -43.195312 8.203125 -45.5 C 7.335938 -47.800781 6.90625 -50.332031 6.90625 -53.09375 C 6.90625 -58.40625 8.644531 -62.710938 12.125 -66.015625 C 15.613281 -69.328125 20.15625 -70.984375 25.75 -70.984375 C 28.820312 -70.984375 32.164062 -70.375 35.78125 -69.15625 C 37.476562 -68.601562 38.660156 -68.328125 39.328125 -68.328125 C 39.878906 -68.328125 40.253906 -68.441406 40.453125 -68.671875 C 40.648438 -68.910156 40.863281 -69.441406 41.09375 -70.265625 Z M 41.09375 -70.265625 "/></g></g></g></svg>